<svg xmlns="http://www.w3.org/2000/svg" width="1em" height="1em" fill="currentColor" viewBox="0 0 1024 1024"><path d="M858.5 763.6a374 374 0 0 0-80.6-119.5 375.63 375.63 0 0 0-119.5-80.6c-.4-.2-.8-.3-1.2-.5C719.5 518 760 444.7 760 362c0-137-111-248-248-248S264 225 264 362c0 82.7 40.5 156 102.8 201.1-.4.2-.8.3-1.2.5-44.8 18.9-85 46-119.5 80.6a375.63 375.63 0 0 0-80.6 119.5A371.7 371.7 0 0 0 136 901.8a8 8 0 0 0 8 8.2h60c65.3 0 118.8-59.4 121.9-133.2 2.6-33.5-15.3-65.4-42.7-82.9a156.7 156.7 0 0 1-45.3-109.8 158.3 158.3 0 0 1 94-144.2 8.1 8.1 0 0 0 3.9-11.2L503.4 578.9a8 8 0 0 0-11.2-3.9A158.3 158.3 0 0 1 388 430.8c0-45.9 19.7-87.2 51-116.9a156.7 156.7 0 0 1 109.8-45.3 158.3 158.3 0 0 1 144.2 94 8.1 8.1 0 0 0 11.2 3.9L879 470.9a8 8 0 0 0 3.9-11.2 158.3 158.3 0 0 1 94-144.2 156.7 156.7 0 0 1 109.8 45.3c31.3 29.7 51 71 51 116.9 0 45.9-19.7 87.2-51 116.9a156.7 156.7 0 0 1-109.8 45.3 158.3 158.3 0 0 1-144.2-94 8.1 8.1 0 0 0-11.2-3.9L545 709.9a8 8 0 0 0-3.9 11.2 158.3 158.3 0 0 1-94 144.2 156.7 156.7 0 0 1-109.8 45.3c-27.4 17.5-45.3 49.4-42.7 82.9 3.1 73.8 56.6 133.2 121.9 133.2h60c4.4 0 8-3.6 8-8.2a371.7 371.7 0 0 0-39.7-165.2z"/></svg>